<svg width="21" height="23" viewBox="0 0 21 23" fill="none" xmlns="http://www.w3.org/2000/svg">
<path id="Vector" d="M18.5834 15.025L19.7855 15.7463C20.0222 15.8884 20.099 16.1955 19.957 16.4323C19.9147 16.5026 19.8558 16.5615 19.7855 16.6038L11.0145 21.8663C10.6978 22.0563 10.3022 22.0563 9.98552 21.8663L1.21463 16.6038C0.977843 16.4617 0.901053 16.1546 1.04313 15.9178C1.08535 15.8474 1.14425 15.7885 1.21463 15.7463L2.41672 15.025L10.5 19.875L18.5834 15.025ZM18.5834 10.325L19.7855 11.0463C20.0222 11.1884 20.099 11.4955 19.957 11.7323C19.9147 11.8026 19.8558 11.8615 19.7855 11.9038L10.5 17.475L1.21463 11.9038C0.977843 11.7617 0.901053 11.4546 1.04313 11.2178C1.08535 11.1474 1.14425 11.0885 1.21463 11.0463L2.41672 10.325L10.5 15.175L18.5834 10.325ZM11.0145 1.13372L19.7855 6.39628C20.0222 6.53835 20.099 6.84548 19.957 7.08227C19.9147 7.15265 19.8558 7.21155 19.7855 7.25377L10.5 12.825L1.21463 7.25377C0.977843 7.1117 0.901053 6.80457 1.04313 6.56778C1.08535 6.4974 1.14425 6.4385 1.21463 6.39628L9.98552 1.13372C10.3022 0.943708 10.6978 0.943708 11.0145 1.13372ZM10.5 3.15741L4.38735 6.82503L10.5 10.4926L16.6127 6.82503L10.5 3.15741Z" fill="#EA7810"/>
</svg>
